# xmcd
#
# Track frame offsets: 
#        182
#        19672
#        43680
#        82215
#        105412
#        125630
#        148155
#        170767
#        192695
#        205560
#        251287
#        266372
#        281665
#        302180
#        325622
#
# Disc length: 4672 seconds
#
# Revision: 19
# Processed by: cddbd v1.5.2PL0 Copyright (c) Steve Scherf et al.
# Submitted via: ExactAudioCopy v0.99pb3
#
DISCID=da123e0f
DTITLE=B.B. King - Lucille and Friends
DYEAR=1995
DGENRE=Blues
TTITLE0=When Love Comes To Town [with U2]
TTITLE1=Playin' With My Friends [with Robert Cray]
TTITLE2=To Know You Is To Love You [with Stevie Wonder]
TTITLE3=Caught A Touch Of Your Love [with Grover Washington Jr.]
TTITLE4=All You Ever Give Me Is The Blues [with Vernon Reid]
TTITLE5=You Shook Me [with John Lee Hooker]
TTITLE6=Spirit In The Dark [with Diane Schuur]
TTITLE7=Can't Get Enough [with Mick Fleetwood/Stevie Nicks]
TTITLE8=Since I Met You Baby [with Gary Moore]
TTITLE9=BB's Blues [with Branford Marsalis]
TTITLE10=Better Not Look Down [with The Crusaders]
TTITLE11=Frosty [with Albert Collins]
TTITLE12=Hummingbird [with Leon Russell/Joe Walsh]
TTITLE13=Ghetto Woman [with Ringo Starr]
TTITLE14=Let The Goodtimes Roll [with Bobby 'Blue' Bland]
EXTD=YEAR: 1995
EXTT0=
EXTT1=
EXTT2=
EXTT3=
EXTT4=
EXTT5=
EXTT6=
EXTT7=
EXTT8=
EXTT9=
EXTT10=
EXTT11=
EXTT12=
EXTT13=
EXTT14=
PLAYORDER=
